# xmcd
#
# Track frame offsets:
#   150
#   17561
#   35303
#   55433
#   73845
#   90689
#   110397
#   127235
#   141266
#   155759
#   173765
#   189346
#   206399
#   231140
#   246554
#   264003
#   280057
#   294031
#   306962
#   321060
#   339452
#
# Disc length: 4727 seconds
#
# Revision: 0
# Processed by: cddbd v1.5.2PL0 Copyright (c) Steve Scherf et al.
# Submitted via: GXTranscoder 2.0.1939
#
DISCID=30127515
DTITLE=b - b
DYEAR=1900
DGENRE=b
TTITLE0=Rihanna-Take A Bow
TTITLE1=Leona Lewis-Better in Time
TTITLE2=Jordin Sparks-No Air
TTITLE3=Jason Mraz-I´m Yours
TTITLE4=Coldplay-Vilolett Hill
TTITLE5=Sara Bareilles-Love Song
TTITLE6=Enrique Iglesias-Can You Here Me
TTITLE7=Aloha From Hell-Don´t Gimme That
TTITLE8=Jennifer Kae-Little White Lies
TTITLE9=Busta Rhymes-We Made It
TTITLE10=Kat Deluna-Whine Up
TTITLE11=Culcha Candela-Besonderer Tag
TTITLE12=Will.I.Am-Heartbreaker
TTITLE13=Kanye West-Homecoming
TTITLE14=Flo Rida-Low
TTITLE15=Britney Spears-Piece Of Me
TTITLE16=Shaggy-Feel The Rush
TTITLE17=Natural Born Grooves-Candy On The Dancefloor
TTITLE18=Amy MacDonald-This Is The Life
TTITLE19=The Roots-Birthday Girl
TTITLE20=Crazy Loop-Crazy Loop
EXTD=b
EXTT0=
EXTT1=
EXTT2=
EXTT3=
EXTT4=
EXTT5=
EXTT6=
EXTT7=
EXTT8=
EXTT9=
EXTT10=
EXTT11=
EXTT12=
EXTT13=
EXTT14=
EXTT15=
EXTT16=
EXTT17=
EXTT18=
EXTT19=
EXTT20=
PLAYORDER=
